<svg width="639" height="223" viewBox="0 0 639 223" fill="none" xmlns="http://www.w3.org/2000/svg">
<path d="M80.3557 0H0.536804V80.5831L22.4877 58.422V222.611H80.3565L80.3557 0Z" fill="#F5F5F5"/>
<path fill-rule="evenodd" clip-rule="evenodd" d="M191.287 61.6638L252.366 0H92.7281V117.553V161.166C101.907 195.616 133.036 221.205 170.152 221.205C208.691 221.205 241.038 193.761 248.799 157.043C265.966 195.598 304.325 222.411 348.945 222.411C409.408 222.411 458.696 172.853 458.696 111.61C458.696 109.355 458.63 107.117 458.498 104.896C464.281 108.836 470.599 111.484 477.454 112.817V175.672L589.4 62.6543H542.548C542.636 61.3961 542.689 60.1208 542.706 58.8283C542.706 43.719 537.318 30.8257 526.742 20.1484C515.966 9.47118 503.195 4.03182 488.229 4.03182C473.263 4.03182 460.492 9.47118 449.916 20.1484C442.987 27.1442 438.284 35.0913 435.866 43.9898C415.77 17.7183 384.264 0.807993 348.945 0.807993C292.343 0.807993 245.816 43.9556 239.843 99.4828C229.348 81.1396 211.956 67.34 191.287 61.6638ZM231.167 8.86541L180.903 59.5467C180.903 59.5467 105.154 130 101.509 130V97.63V8.86541H231.167ZM488.229 113.826C503.395 113.826 516.166 108.387 526.742 97.7096C534.258 90.1219 539.052 81.4151 541.27 71.5168H568.242L486.434 154.26V113.8C487.029 113.817 487.627 113.826 488.229 113.826Z" fill="#F5F5F5"/>
<path d="M622.724 205.087C612.148 215.764 599.377 221.203 584.411 221.203C569.445 221.203 556.674 215.764 545.898 205.087C535.322 194.409 529.934 181.516 529.934 166.205C529.934 150.894 535.322 138.001 545.898 127.324C556.474 116.647 569.245 111.409 584.411 111.409C599.377 111.409 612.148 116.848 622.724 127.525C633.3 138.203 638.688 151.096 638.688 166.205C638.488 181.516 633.3 194.409 622.724 205.087Z" fill="#F5F5F5"/>
</svg>
