<svg width="96" height="33" viewBox="0 0 96 33" fill="none" xmlns="http://www.w3.org/2000/svg">
<path d="M72.1827 24.9902L72.1826 8.33L88.8427 8.33007" fill="#00B1D7"/>
<path d="M11.8901 32.8461H3.28125V1.98672L11.8901 0V32.8461Z" fill="#261F48"/>
<path d="M37.6932 20.8601C37.6932 23.2308 36.9902 25.5482 35.6731 27.5193C34.356 29.4905 32.484 31.0268 30.2938 31.934C28.1036 32.8412 25.6936 33.0785 23.3685 32.616C21.0434 32.1535 18.9076 31.0119 17.2313 29.3356C15.555 27.6593 14.4135 25.5236 13.951 23.1984C13.4885 20.8733 13.7259 18.4633 14.6331 16.2731C15.5404 14.0829 17.0767 12.2109 19.0478 10.8939C21.019 9.57684 23.3364 8.87388 25.7071 8.8739C27.2811 8.8739 28.8398 9.18394 30.294 9.7863C31.7482 10.3887 33.0696 11.2716 34.1826 12.3846C35.2956 13.4976 36.1785 14.819 36.7808 16.2732C37.3832 17.7275 37.6932 19.2861 37.6932 20.8601Z" fill="#261F48"/>
<path d="M68.2403 16.4895C68.2403 19.7246 67.281 22.887 65.4836 25.5769C63.6863 28.2668 61.1317 30.3633 58.1428 31.6013C55.154 32.8393 51.8652 33.1632 48.6922 32.5321C45.5193 31.9009 42.6048 30.3431 40.3172 28.0555C38.0297 25.768 36.4718 22.8534 35.8407 19.6805C35.2095 16.5076 35.5334 13.2188 36.7714 10.2299C38.0094 7.24108 40.1059 4.68646 42.7958 2.88912C45.4857 1.09179 48.6481 0.132444 51.8832 0.132416C54.0313 0.132383 56.1583 0.555447 58.1428 1.37745C60.1274 2.19946 61.9306 3.40431 63.4495 4.92322C64.9684 6.44212 66.1732 8.24532 66.9953 10.2299C67.8173 12.2144 68.2403 14.3414 68.2403 16.4895Z" fill="#261F48"/>
<path d="M78.1551 14.4413C76.5811 16.0224 74.6702 16.8128 72.4225 16.8125C70.1885 16.8125 68.2811 16.0221 66.7003 14.4413C65.1192 12.8605 64.3287 10.9532 64.3291 8.71938C64.3291 6.48612 65.1195 4.57892 66.7003 2.9978C68.2812 1.41688 70.1886 0.626425 72.4225 0.626434C74.6559 0.626434 76.5631 1.41689 78.1441 2.9978C79.7244 4.57883 80.5147 6.48602 80.515 8.71938C80.515 10.9532 79.7284 12.8605 78.1551 14.4413Z" fill="#261F48"/>
<path d="M93.6294 30.2792C92.0483 31.8604 90.1409 32.6508 87.9073 32.6504C85.6739 32.6504 83.7667 31.86 82.1857 30.2792C80.6048 28.6983 79.8144 26.7911 79.8145 24.5576C79.8145 22.3093 80.6049 20.3984 82.1857 18.825C83.7666 17.2515 85.6738 16.4646 87.9073 16.4643C90.141 16.4643 92.0484 17.2547 93.6294 18.8355C95.21 20.4166 96.0004 22.324 96.0006 24.5576C96.0006 26.791 95.2102 28.6982 93.6294 30.2792" fill="#261F48"/>
<path d="M13.7207 23.7819V0H37.5029" fill="#00B1D7"/>
<path d="M0 11.8911V0H11.8911" fill="#00B1D7"/>
</svg>
